<svg width="88" height="58" viewBox="0 0 88 58" fill="none" xmlns="http://www.w3.org/2000/svg">
<g clip-path="url(#clip0_28_665)">
<path d="M1.50736 26.6598H10.1694V29.031L6.92111 29.2784C1.65597 29.6495 0 30.9897 0 34.7835V35.5464C0 38.3299 1.99566 40 5.07406 40C7.51556 40 8.89554 39.4433 10.6152 37.732H10.8912V39.5464H14.3517V22.9691H1.50736V26.6598ZM10.1694 34.6392C9.08661 35.6908 7.49433 36.3712 6.15682 36.3712C4.73438 36.3712 4.1187 35.8557 4.16116 34.7011C4.20362 33.0928 4.79807 32.7217 7.55802 32.4743L10.1694 32.2268C10.1694 32.2475 10.1694 34.6392 10.1694 34.6392Z" fill="#BDBDBD"/>
<path d="M82.8411 29.6495L80.2722 29.4021C78.8497 29.2578 78.4888 28.9072 78.4888 27.7938C78.4888 26.5361 78.9983 26.2268 80.994 26.2268C82.7774 26.2268 83.2869 26.4949 83.5417 27.6908H87.5542C87.448 23.732 86.1955 22.7217 81.2275 22.7217C75.7926 22.7217 74.4338 23.732 74.4338 27.7938C74.4338 31.5052 75.4316 32.5155 79.4866 32.9072L81.6097 33.1134C83.4992 33.2784 83.9663 33.6289 83.9663 34.7423C83.9663 36.1031 83.393 36.4536 81.0789 36.4536C79.0408 36.4536 78.51 36.1444 78.4039 34.8454H74.3701C74.4763 38.9485 75.7713 40 80.9091 40C86.6413 40 88.0637 38.8866 88.0637 34.3712C88 31.0103 86.9597 30.0206 82.8411 29.6495Z" fill="#6D6D6D"/>
<path d="M61.3772 29.9588C61.3772 24.598 59.4877 22.7217 54.0314 22.7217C48.5752 22.7217 46.5583 25.1547 46.5583 31.1959C46.5583 37.7938 48.4266 40 54.4348 40C58.7658 40 60.5916 38.7217 61.2073 35.0928H57.0886C56.6216 36.2062 56.1333 36.4536 54.3711 36.4536C51.7173 36.4536 51.038 35.732 50.8893 32.6392H61.0799C61.271 31.732 61.3772 30.6598 61.3772 29.9588ZM50.9318 29.3609C50.9743 27.031 51.9296 26.165 54.2225 26.165C56.5154 26.165 57.3009 27.031 57.3646 29.3609H50.9318Z" fill="#6D6D6D"/>
<path d="M28.4913 22.9691H21.8037V18H17.5364V39.5464H21.8037V26.6804H27.8756V39.5464H32.1429V26.3505H28.4913V22.9691Z" fill="#6D6D6D"/>
<path d="M63.7761 23.6907V39.5464H68.0434V26.5155H73.16V22.9691H68.0434V22.5155C68.0859 21.5464 68.3194 21.2577 69.1474 21.2577H73.7969V18H68.7865C65.3896 18 63.7761 19.0103 63.7761 23.6907Z" fill="#6D6D6D"/>
<path d="M35.2849 39.5464H39.5522V26.866H45.8789V22.9691H35.2849V39.5464Z" fill="#6D6D6D"/>
</g>
<defs>
<clipPath id="clip0_28_665">
<rect width="88" height="22" fill="white" transform="translate(0 18)"/>
</clipPath>
</defs>
</svg>
