<svg width="170" height="58" viewBox="0 0 170 58" fill="none" xmlns="http://www.w3.org/2000/svg">
<g clip-path="url(#clip0_28_629)">
<path d="M99.9304 15.7636C99.9304 20.0592 96.5407 23.2246 92.3806 23.2246C88.2206 23.2246 84.8308 20.0592 84.8308 15.7636C84.8308 11.4378 88.2206 8.30273 92.3806 8.30273C96.5407 8.30273 99.9304 11.4378 99.9304 15.7636ZM96.6255 15.7636C96.6255 13.0793 94.6608 11.2427 92.3806 11.2427C90.1004 11.2427 88.1358 13.0793 88.1358 15.7636C88.1358 18.4211 90.1004 20.2846 92.3806 20.2846C94.6608 20.2846 96.6255 18.4177 96.6255 15.7636Z" fill="#6D6D6D"/>
<path d="M116.218 15.7636C116.218 20.0592 112.828 23.2246 108.668 23.2246C104.508 23.2246 101.118 20.0592 101.118 15.7636C101.118 11.4412 104.508 8.30273 108.668 8.30273C112.828 8.30273 116.218 11.4378 116.218 15.7636ZM112.913 15.7636C112.913 13.0793 110.948 11.2427 108.668 11.2427C106.388 11.2427 104.423 13.0793 104.423 15.7636C104.423 18.4211 106.388 20.2846 108.668 20.2846C110.948 20.2846 112.913 18.4177 112.913 15.7636Z" fill="#6D6D6D"/>
<path d="M131.826 8.75348V22.1481C131.826 27.6581 128.548 29.9084 124.673 29.9084C121.026 29.9084 118.83 27.4899 118.002 25.512L120.88 24.3245C121.392 25.5389 122.648 26.9718 124.67 26.9718C127.15 26.9718 128.688 25.4548 128.688 22.5989V21.5258H128.572C127.832 22.4307 126.407 23.2212 124.609 23.2212C120.846 23.2212 117.398 19.9718 117.398 15.7906C117.398 11.5791 120.846 8.30273 124.609 8.30273C126.404 8.30273 127.829 9.09323 128.572 9.97118H128.688V8.75685H131.826V8.75348ZM128.922 15.7906C128.922 13.1634 127.154 11.2427 124.904 11.2427C122.624 11.2427 120.714 13.1634 120.714 15.7906C120.714 18.3908 122.624 20.2846 124.904 20.2846C127.154 20.2846 128.922 18.3908 128.922 15.7906Z" fill="#6D6D6D"/>
<path d="M137.001 0.902344V22.7671H133.777V0.902344H137.001Z" fill="#6D6D6D"/>
<path d="M149.562 18.2192L152.128 19.9145C151.3 21.1289 149.305 23.2211 145.857 23.2211C141.582 23.2211 138.389 19.9448 138.389 15.7602C138.389 11.3234 141.609 8.29932 145.487 8.29932C149.393 8.29932 151.303 11.3806 151.927 13.0456L152.27 13.8933L142.209 18.0241C142.98 19.521 144.177 20.2845 145.857 20.2845C147.54 20.2845 148.707 19.4638 149.562 18.2192ZM141.666 15.5349L148.392 12.7664C148.022 11.8347 146.909 11.1855 145.599 11.1855C143.92 11.1855 141.582 12.6554 141.666 15.5349Z" fill="#6D6D6D"/>
<path d="M72.629 13.8227V10.6573H83.3887C83.4939 11.209 83.5482 11.8616 83.5482 12.568C83.5482 14.9428 82.8933 17.8794 80.7828 19.9717C78.7299 22.0909 76.107 23.2211 72.6324 23.2211C66.1921 23.2211 60.7766 18.0207 60.7766 11.6362C60.7766 5.25171 66.1921 0.0512695 72.6324 0.0512695C76.1952 0.0512695 78.7333 1.43716 80.6403 3.24352L78.3872 5.47708C77.0197 4.20557 75.1671 3.21661 72.629 3.21661C67.926 3.21661 64.2478 6.97398 64.2478 11.6362C64.2478 16.2984 67.926 20.0558 72.629 20.0558C75.6794 20.0558 77.4167 18.8415 78.5297 17.7381C79.4323 16.8434 80.0261 15.5651 80.2602 13.8193L72.629 13.8227Z" fill="#6D6D6D"/>
<path d="M69.607 34.9798L66.2935 44.066H73.0541L69.7139 34.9798H69.607ZM63.4343 51.9336H60.5483L68.1908 31.8009H71.1569L78.7993 51.9336H75.9134L73.9627 46.4766H65.4117L63.4343 51.9336Z" fill="#A6A6A6"/>
<path d="M80.115 38.1586H82.6268V40.0659H82.7337C83.1212 39.397 83.7291 38.8407 84.5508 38.397C85.3859 37.94 86.241 37.7083 87.1161 37.7083C88.8263 37.7083 90.1357 38.1983 91.0442 39.1652C91.9661 40.1189 92.4337 41.4898 92.4337 43.2712V51.9336H89.815V43.4567C89.7615 41.1984 88.6192 40.0659 86.3946 40.0659C85.3591 40.0659 84.484 40.4897 83.7759 41.3374C83.0811 42.1719 82.7337 43.1587 82.7337 44.3044V51.9336H80.115V38.1586Z" fill="#A6A6A6"/>
<path d="M97.2668 47.7216C97.2668 48.3971 97.5473 48.9601 98.1219 49.417C98.6897 49.8607 99.3644 50.0793 100.153 50.0793C101.235 50.0793 102.21 49.6819 103.065 48.8872C103.934 48.0793 104.375 47.1256 104.375 46.0263C103.553 45.3905 102.411 45.0726 100.954 45.0726C99.8989 45.0726 99.017 45.3309 98.3089 45.8408C97.6142 46.3375 97.2668 46.9667 97.2668 47.7216ZM100.634 37.7083C102.558 37.7083 104.067 38.2248 105.176 39.2447C106.299 40.2712 106.86 41.6752 106.86 43.4567V51.9336H104.375V50.0263H104.268C103.179 51.6025 101.736 52.384 99.9389 52.384C98.4024 52.384 97.1198 51.9336 96.091 51.0329C95.0756 50.1323 94.5679 49.0131 94.5679 47.6687C94.5679 46.2382 95.109 45.1123 96.1979 44.2779C97.2801 43.4302 98.7365 43.0063 100.554 43.0063C102.103 43.0063 103.373 43.2845 104.375 43.8275V43.2448C104.375 42.3441 104.007 41.5891 103.279 40.9666C102.564 40.3308 101.729 40.0129 100.767 40.0129C99.3043 40.0129 98.1553 40.6222 97.3202 41.8408L95.0221 40.4103C96.2847 38.6089 98.1553 37.7083 100.634 37.7083Z" fill="#A6A6A6"/>
<path d="M112.323 31.8009V51.9336H109.705V31.8009H112.323Z" fill="#A6A6A6"/>
<path d="M127.718 38.1586L119.007 57.9999H116.335L119.568 51.0594L113.823 38.1586H116.655L120.797 48.066H120.851L124.886 38.1586H127.718Z" fill="#A6A6A6"/>
<path d="M134.891 52.1456C133.769 52.1456 132.833 51.8012 132.085 51.1125C131.337 50.4237 130.95 49.4634 130.936 48.225V40.5163H128.478V38.1586H130.936V33.9467H133.528V38.1586H136.949V40.5163H133.528V47.3773C133.528 48.2979 133.702 48.927 134.063 49.2581C134.437 49.576 134.844 49.735 135.292 49.735C135.506 49.735 135.706 49.7217 135.906 49.682C136.1 49.629 136.287 49.5694 136.468 49.4966L137.269 51.8012C136.588 52.0264 135.8 52.1456 134.891 52.1456Z" fill="#A6A6A6"/>
<path d="M142.66 33.4168C142.66 33.9135 142.473 34.344 142.099 34.7149C141.738 35.0725 141.311 35.2447 140.816 35.2447C140.295 35.2447 139.861 35.0725 139.507 34.7149C139.146 34.344 138.972 33.9135 138.972 33.4168C138.972 32.9069 139.146 32.4764 139.507 32.1188C139.861 31.7678 140.295 31.589 140.816 31.589C141.311 31.589 141.738 31.7678 142.099 32.1188C142.473 32.4764 142.66 32.9069 142.66 33.4168ZM142.126 38.1586V51.9337H139.507V38.1586H142.126Z" fill="#A6A6A6"/>
<path d="M150.922 52.384C148.851 52.384 147.141 51.6886 145.791 50.2912C144.455 48.8806 143.787 47.1322 143.787 45.0461C143.787 42.9269 144.455 41.1785 145.791 39.801C147.141 38.4102 148.851 37.7083 150.922 37.7083C152.345 37.7083 153.581 38.0659 154.636 38.7679C155.685 39.4765 156.48 40.45 157.015 41.6818L154.636 42.662C153.902 40.9335 152.612 40.0659 150.762 40.0659C149.566 40.0659 148.53 40.5427 147.662 41.4964C146.807 42.45 146.379 43.6355 146.379 45.0461C146.379 46.4633 146.807 47.6422 147.662 48.5958C148.53 49.5495 149.566 50.0263 150.762 50.0263C152.666 50.0263 154.002 49.1654 154.77 47.4302L157.095 48.4104C156.594 49.6488 155.799 50.6223 154.717 51.3243C153.628 52.0263 152.365 52.384 150.922 52.384Z" fill="#A6A6A6"/>
<path d="M170 48.119C170 49.3243 169.466 50.3376 168.397 51.1654C167.341 51.9734 166.019 52.384 164.415 52.384C163.026 52.384 161.797 52.0197 160.728 51.2979C159.672 50.576 158.917 49.6223 158.456 48.4369L160.781 47.4567C161.135 48.2912 161.636 48.9336 162.278 49.3905C162.932 49.8541 163.647 50.0793 164.415 50.0793C165.25 50.0793 165.945 49.9071 166.5 49.5495C167.067 49.1985 167.355 48.7746 167.355 48.2779C167.355 47.3971 166.667 46.7547 165.297 46.3441L162.919 45.7613C160.207 45.0726 158.857 43.7746 158.857 41.8673C158.857 40.6156 159.372 39.6089 160.407 38.8473C161.436 38.0924 162.759 37.7083 164.362 37.7083C165.591 37.7083 166.7 37.9996 167.702 38.5824C168.697 39.1652 169.392 39.9467 169.786 40.9136L167.462 41.8673C167.194 41.2845 166.753 40.8341 166.152 40.5162C165.564 40.1851 164.903 40.0129 164.175 40.0129C163.493 40.0129 162.879 40.1851 162.331 40.5162C161.797 40.854 161.529 41.2712 161.529 41.7613C161.529 42.5428 162.278 43.1057 163.774 43.4567L165.858 43.9865C168.617 44.662 170 46.0395 170 48.119Z" fill="#A6A6A6"/>
<path d="M35.8689 6.7884V49.4584C35.8689 54.2365 39.1908 56.8933 42.7166 56.8933C45.9774 56.8933 49.5643 54.6305 49.5643 49.4584V7.11165C49.5643 2.73758 46.3035 0 42.7166 0C39.1297 0 35.8689 3.02043 35.8689 6.7884Z" fill="#BDBDBD"/>
<path d="M17.9343 28.4466V49.4583C17.9343 54.2365 21.2563 56.8933 24.782 56.8933C28.0428 56.8933 31.6297 54.6304 31.6297 49.4583V28.7699C31.6297 24.3958 28.3689 21.6582 24.782 21.6582C21.1951 21.6582 17.9343 24.6786 17.9343 28.4466Z" fill="#919090"/>
<path d="M13.6954 50.1049C13.6954 53.8527 10.6282 56.8933 6.84768 56.8933C3.06719 56.8933 0 53.8527 0 50.1049C0 46.3572 3.06719 43.3165 6.84768 43.3165C10.6282 43.3165 13.6954 46.3572 13.6954 50.1049Z" fill="#919090"/>
</g>
<defs>
<clipPath id="clip0_28_629">
<rect width="170" height="58" fill="white"/>
</clipPath>
</defs>
</svg>
