<svg width="217" height="59" viewBox="0 0 217 59" fill="none" xmlns="http://www.w3.org/2000/svg">
<path d="M99.9767 15.8013C99.9767 20.1072 96.5854 23.2801 92.4234 23.2801C88.2615 23.2801 84.8701 20.1072 84.8701 15.8013C84.8701 11.4651 88.2615 8.32251 92.4234 8.32251C96.5854 8.32251 99.9767 11.4651 99.9767 15.8013ZM96.6703 15.8013C96.6703 13.1106 94.7047 11.2695 92.4234 11.2695C90.1422 11.2695 88.1766 13.1106 88.1766 15.8013C88.1766 18.4651 90.1422 20.3331 92.4234 20.3331C94.7047 20.3331 96.6703 18.4617 96.6703 15.8013Z" fill="#6D6D6D"/>
<path d="M116.271 15.8013C116.271 20.1072 112.88 23.2801 108.718 23.2801C104.556 23.2801 101.165 20.1072 101.165 15.8013C101.165 11.4685 104.556 8.32251 108.718 8.32251C112.88 8.32251 116.271 11.4651 116.271 15.8013ZM112.965 15.8013C112.965 13.1106 110.999 11.2695 108.718 11.2695C106.437 11.2695 104.471 13.1106 104.471 15.8013C104.471 18.4651 106.437 20.3331 108.718 20.3331C110.999 20.3331 112.965 18.4617 112.965 15.8013Z" fill="#6D6D6D"/>
<path d="M131.887 8.77434V22.2011C131.887 27.7242 128.608 29.98 124.731 29.98C121.082 29.98 118.885 27.5556 118.057 25.5729L120.936 24.3827C121.449 25.5999 122.705 27.0363 124.728 27.0363C127.209 27.0363 128.747 25.5156 128.747 22.6529V21.5773H128.632C127.892 22.4843 126.466 23.2767 124.667 23.2767C120.902 23.2767 117.453 20.0195 117.453 15.8283C117.453 11.6067 120.902 8.32251 124.667 8.32251C126.463 8.32251 127.888 9.1149 128.632 9.99495H128.747V8.77771H131.887V8.77434ZM128.981 15.8283C128.981 13.1948 127.213 11.2695 124.962 11.2695C122.681 11.2695 120.77 13.1948 120.77 15.8283C120.77 18.4347 122.681 20.3331 124.962 20.3331C127.213 20.3331 128.981 18.4347 128.981 15.8283Z" fill="#6D6D6D"/>
<path d="M137.064 0.904419V22.8215H133.839V0.904419H137.064Z" fill="#6D6D6D"/>
<path d="M149.632 18.2628L152.198 19.9622C151.37 21.1795 149.374 23.2768 145.924 23.2768C141.647 23.2768 138.453 19.9926 138.453 15.798C138.453 11.3505 141.674 8.31921 145.554 8.31921C149.462 8.31921 151.373 11.4078 151.998 13.0769L152.341 13.9266L142.275 18.0673C143.046 19.5677 144.244 20.3332 145.924 20.3332C147.608 20.3332 148.776 19.5104 149.632 18.2628ZM141.732 15.5721L148.46 12.797C148.09 11.863 146.977 11.2123 145.666 11.2123C143.986 11.2123 141.647 12.6858 141.732 15.5721Z" fill="#6D6D6D"/>
<path d="M72.6625 13.8558V10.6829H83.4273C83.5325 11.2359 83.5868 11.89 83.5868 12.5981C83.5868 14.9786 82.9317 17.9222 80.8201 20.0195C78.7663 22.1438 76.1422 23.2768 72.6659 23.2768C66.2227 23.2768 60.8047 18.0639 60.8047 11.6641C60.8047 5.26429 66.2227 0.0513916 72.6659 0.0513916C76.2304 0.0513916 78.7697 1.4406 80.6775 3.25129L78.4234 5.4902C77.0553 4.21564 75.2018 3.22431 72.6625 3.22431C67.9574 3.22431 64.2775 6.99068 64.2775 11.6641C64.2775 16.3375 67.9574 20.1038 72.6625 20.1038C75.7144 20.1038 77.4525 18.8866 78.566 17.7806C79.469 16.8837 80.0631 15.6024 80.2973 13.8524L72.6625 13.8558Z" fill="#6D6D6D"/>
<path d="M33.6161 56.1181L23.6743 46.2343L45.0312 24.8076L55.1572 34.8613L33.6161 56.1181Z" fill="#BDBDBD"/>
<path d="M33.6872 13.547L23.5638 3.49072L2.09906 24.8077C-0.697492 27.5824 -0.700122 32.0788 2.0938 34.8561C2.09643 34.8587 2.09906 34.8613 2.09906 34.8613L23.5638 56.1783L33.4951 46.271L17.2736 29.8476L33.6872 13.547Z" fill="#919090"/>
<path d="M55.152 24.8077L33.6873 3.49069C30.8907 0.713391 26.3578 0.713391 23.5613 3.49069C20.7647 6.26798 20.7647 10.7697 23.5613 13.5443L45.0392 34.8613C47.8357 37.6386 52.3686 37.6386 55.1625 34.8613C57.9591 32.084 57.9591 27.5823 55.1625 24.8077H55.152Z" fill="#BDBDBD"/>
<path d="M28.5465 58.2815C32.4651 58.2815 35.6417 55.1267 35.6417 51.235C35.6417 47.3434 32.4651 44.1886 28.5465 44.1886C24.6278 44.1886 21.4512 47.3434 21.4512 51.235C21.4512 55.1267 24.6278 58.2815 28.5465 58.2815Z" fill="#6D6D6D"/>
<path d="M69.8445 34.1963V51.5242H67.2888V34.1963H61.7329V31.7682H75.4004V34.1963H69.8445Z" fill="#A6A6A6"/>
<path d="M77.3962 47.3854C77.3962 48.0476 77.674 48.5995 78.2296 49.0409C78.8037 49.4824 79.4704 49.7031 80.2297 49.7031C81.3039 49.7031 82.2576 49.3077 83.091 48.5167C83.9429 47.7257 84.3689 46.7968 84.3689 45.7299C83.5725 45.1044 82.4614 44.7917 81.0353 44.7917C79.9982 44.7917 79.1278 45.0401 78.4241 45.5367C77.7388 46.0334 77.3962 46.6496 77.3962 47.3854ZM80.702 37.5626C82.591 37.5626 84.0818 38.0684 85.1745 39.0801C86.2672 40.0735 86.8135 41.4439 86.8135 43.1914V51.5242H84.3689V49.648H84.2578C83.2021 51.1931 81.7946 51.9657 80.0353 51.9657C78.5352 51.9657 77.2758 51.5242 76.2573 50.6413C75.2572 49.7583 74.7572 48.6546 74.7572 47.3302C74.7572 45.9322 75.285 44.8193 76.3406 43.9915C77.4147 43.1638 78.8408 42.7499 80.6186 42.7499C82.1373 42.7499 83.3873 43.0258 84.3689 43.5777V42.9982C84.3689 42.1153 84.017 41.3703 83.3133 40.7633C82.6095 40.1378 81.7854 39.8251 80.8409 39.8251C79.4149 39.8251 78.2852 40.423 77.4518 41.6186L75.2016 40.2114C76.4425 38.4455 78.2759 37.5626 80.702 37.5626Z" fill="#A6A6A6"/>
<path d="M95.6719 49.648C96.9312 49.648 97.9591 49.1973 98.7554 48.2959C99.5888 47.3946 100.006 46.2173 100.006 44.7641C100.006 43.3477 99.5888 42.1797 98.7554 41.2599C97.9406 40.3402 96.9127 39.8803 95.6719 39.8803C94.4496 39.8803 93.4218 40.3402 92.5884 41.2599C91.755 42.1797 91.3383 43.3477 91.3383 44.7641C91.3383 46.1989 91.755 47.367 92.5884 48.2683C93.4218 49.1881 94.4496 49.648 95.6719 49.648ZM95.5886 57.9256C94.8293 57.9256 94.1162 57.8245 93.4495 57.6221C92.7828 57.4382 92.1717 57.1714 91.6161 56.8219C91.079 56.4724 90.616 56.0586 90.2271 55.5803C89.8382 55.102 89.5419 54.5686 89.3382 53.9799L91.755 52.9866C92.0328 53.7776 92.5143 54.4122 93.1995 54.8905C93.8847 55.3687 94.6811 55.6079 95.5886 55.6079C96.9775 55.6079 98.0609 55.194 98.8388 54.3662C99.6166 53.5385 100.006 52.398 100.006 50.9448V49.648H99.8944C99.4129 50.3654 98.7554 50.9356 97.922 51.3587C97.1072 51.7634 96.2182 51.9657 95.2552 51.9657C93.4773 51.9657 91.9494 51.2759 90.6716 49.8963C89.4122 48.4799 88.7826 46.7692 88.7826 44.7641C88.7826 42.7591 89.4122 41.0576 90.6716 39.6596C91.9494 38.2616 93.4773 37.5626 95.2552 37.5626C96.2182 37.5626 97.1072 37.7741 97.922 38.1972C98.7554 38.6019 99.4129 39.1629 99.8944 39.8803H100.006V38.004H102.45V50.9448C102.45 53.1154 101.83 54.8169 100.589 56.0494C99.3295 57.3002 97.6628 57.9256 95.5886 57.9256Z" fill="#A6A6A6"/>
<path d="M114.67 51.5242H112.115V31.7682H114.67L121.587 43.7984H121.698L128.616 31.7682H131.171V51.5242H128.616V39.7975L128.727 36.4865H128.616L122.393 47.3302H120.893L114.67 36.4865H114.559L114.67 39.7975V51.5242Z" fill="#A6A6A6"/>
<path d="M136.184 47.3854C136.184 48.0476 136.461 48.5995 137.017 49.0409C137.591 49.4824 138.258 49.7031 139.017 49.7031C140.091 49.7031 141.045 49.3077 141.878 48.5167C142.73 47.7257 143.156 46.7968 143.156 45.7299C142.36 45.1044 141.249 44.7917 139.823 44.7917C138.786 44.7917 137.915 45.0401 137.211 45.5367C136.526 46.0334 136.184 46.6496 136.184 47.3854ZM139.489 37.5626C141.378 37.5626 142.869 38.0684 143.962 39.0801C145.054 40.0735 145.601 41.4439 145.601 43.1914V51.5242H143.156V49.648H143.045C141.989 51.1931 140.582 51.9657 138.823 51.9657C137.323 51.9657 136.063 51.5242 135.045 50.6413C134.045 49.7583 133.545 48.6546 133.545 47.3302C133.545 45.9322 134.072 44.8193 135.128 43.9915C136.202 43.1638 137.628 42.7499 139.406 42.7499C140.925 42.7499 142.175 43.0258 143.156 43.5777V42.9982C143.156 42.1153 142.804 41.3703 142.101 40.7633C141.397 40.1378 140.573 39.8251 139.628 39.8251C138.202 39.8251 137.073 40.423 136.239 41.6186L133.989 40.2114C135.23 38.4455 137.063 37.5626 139.489 37.5626Z" fill="#A6A6A6"/>
<path d="M148.483 38.004H150.928V39.8803H151.039C151.428 39.2181 152.021 38.6662 152.817 38.2248C153.632 37.7833 154.475 37.5626 155.345 37.5626C157.012 37.5626 158.29 38.0408 159.178 38.9974C160.086 39.9355 160.54 41.2783 160.54 43.0258V51.5242H157.984V43.1914C157.928 40.984 156.808 39.8803 154.623 39.8803C153.604 39.8803 152.752 40.2942 152.067 41.122C151.382 41.9313 151.039 42.9063 151.039 44.0467V51.5242H148.483V38.004Z" fill="#A6A6A6"/>
<path d="M165.265 47.3854C165.265 48.0476 165.543 48.5995 166.099 49.0409C166.673 49.4824 167.339 49.7031 168.099 49.7031C169.173 49.7031 170.127 49.3077 170.96 48.5167C171.812 47.7257 172.238 46.7968 172.238 45.7299C171.442 45.1044 170.33 44.7917 168.904 44.7917C167.867 44.7917 166.997 45.0401 166.293 45.5367C165.608 46.0334 165.265 46.6496 165.265 47.3854ZM168.571 37.5626C170.46 37.5626 171.951 38.0684 173.044 39.0801C174.136 40.0735 174.683 41.4439 174.683 43.1914V51.5242H172.238V49.648H172.127C171.071 51.1931 169.664 51.9657 167.904 51.9657C166.404 51.9657 165.145 51.5242 164.126 50.6413C163.126 49.7583 162.626 48.6546 162.626 47.3302C162.626 45.9322 163.154 44.8193 164.21 43.9915C165.284 43.1638 166.71 42.7499 168.488 42.7499C170.006 42.7499 171.256 43.0258 172.238 43.5777V42.9982C172.238 42.1153 171.886 41.3703 171.182 40.7633C170.479 40.1378 169.654 39.8251 168.71 39.8251C167.284 39.8251 166.154 40.423 165.321 41.6186L163.071 40.2114C164.311 38.4455 166.145 37.5626 168.571 37.5626Z" fill="#A6A6A6"/>
<path d="M183.541 49.648C184.8 49.648 185.828 49.1973 186.624 48.2959C187.458 47.3946 187.875 46.2173 187.875 44.7641C187.875 43.3477 187.458 42.1797 186.624 41.2599C185.81 40.3402 184.782 39.8803 183.541 39.8803C182.319 39.8803 181.291 40.3402 180.457 41.2599C179.624 42.1797 179.207 43.3477 179.207 44.7641C179.207 46.1989 179.624 47.367 180.457 48.2683C181.291 49.1881 182.319 49.648 183.541 49.648ZM183.458 57.9256C182.698 57.9256 181.985 57.8245 181.319 57.6221C180.652 57.4382 180.041 57.1714 179.485 56.8219C178.948 56.4724 178.485 56.0586 178.096 55.5803C177.707 55.102 177.411 54.5686 177.207 53.9799L179.624 52.9866C179.902 53.7776 180.383 54.4122 181.069 54.8905C181.754 55.3687 182.55 55.6079 183.458 55.6079C184.847 55.6079 185.93 55.194 186.708 54.3662C187.486 53.5385 187.875 52.398 187.875 50.9448V49.648H187.763C187.282 50.3654 186.624 50.9356 185.791 51.3587C184.976 51.7634 184.087 51.9657 183.124 51.9657C181.346 51.9657 179.818 51.2759 178.541 49.8963C177.281 48.4799 176.652 46.7692 176.652 44.7641C176.652 42.7591 177.281 41.0576 178.541 39.6596C179.818 38.2616 181.346 37.5626 183.124 37.5626C184.087 37.5626 184.976 37.7741 185.791 38.1972C186.624 38.6019 187.282 39.1629 187.763 39.8803H187.875V38.004H190.319V50.9448C190.319 53.1154 189.699 54.8169 188.458 56.0494C187.199 57.3002 185.532 57.9256 183.458 57.9256Z" fill="#A6A6A6"/>
<path d="M199.411 51.9657C197.411 51.9657 195.763 51.2851 194.466 49.9239C193.17 48.5627 192.522 46.8427 192.522 44.7641C192.522 42.7039 193.151 40.9932 194.411 39.632C195.67 38.2524 197.281 37.5626 199.244 37.5626C201.263 37.5626 202.865 38.2156 204.05 39.5216C205.254 40.8092 205.856 42.6211 205.856 44.9573L205.828 45.2332H195.133C195.17 46.5576 195.615 47.6245 196.466 48.4339C197.318 49.2433 198.337 49.648 199.522 49.648C201.152 49.648 202.43 48.8386 203.356 47.2198L205.634 48.3235C205.023 49.464 204.171 50.3562 203.078 51C202.004 51.6438 200.782 51.9657 199.411 51.9657ZM195.327 43.1362H203.134C203.059 42.1981 202.671 41.4255 201.967 40.8184C201.282 40.193 200.356 39.8803 199.189 39.8803C198.226 39.8803 197.392 40.1746 196.689 40.7633C196.003 41.3519 195.55 42.1429 195.327 43.1362Z" fill="#A6A6A6"/>
<path d="M210.749 51.5242H208.193V38.004H210.638V40.2114H210.749C211.008 39.494 211.536 38.887 212.332 38.3903C213.147 37.8753 213.943 37.6177 214.721 37.6177C215.462 37.6177 216.092 37.7281 216.61 37.9488L215.832 40.4046C215.518 40.2758 215.018 40.2114 214.332 40.2114C213.369 40.2114 212.527 40.5977 211.804 41.3703C211.101 42.1429 210.749 43.0442 210.749 44.0743V51.5242Z" fill="#A6A6A6"/>
</svg>
