<svg width="217" height="26" viewBox="0 0 217 26" fill="none" xmlns="http://www.w3.org/2000/svg">
<g clip-path="url(#clip0_28_674)">
<path d="M142.018 10.1576C142.018 6.96288 140.104 4.63647 136.435 4.63647H124.581V21.1998H128.474V15.5476H133.084L137.599 21.1998H141.986V20.8394L137.599 15.4493C140.359 14.8759 142.018 12.8116 142.018 10.1576ZM136.004 12.2055H128.49V8.07693H136.004C137.392 8.07693 138.285 8.83055 138.285 10.1412C138.285 11.4846 137.424 12.2055 136.004 12.2055Z" fill="#6D6D6D"/>
<path d="M200.871 4.63647H197.218V10.9276H187.406V4.63647H183.466V21.2162H187.406V14.6793H197.218V21.2162H200.871V4.63647Z" fill="#6D6D6D"/>
<path d="M114.164 4.63647L109.824 18.5785H109.585L105.23 4.63647H98.2898V21.2162H102.007V7.60182H102.23L106.57 21.2162H112.552L116.908 7.60182H117.131V21.2162H120.96V4.63647H114.164Z" fill="#6D6D6D"/>
<path d="M71.759 11.4191C70.387 11.2716 67.8184 11.0259 66.4464 10.8784C65.0904 10.731 64.3087 10.3214 64.3087 9.40395C64.3087 8.51926 65.1382 7.78202 68.4885 7.78202C71.4558 7.78202 74.1839 8.43734 76.561 9.61693V5.91435C74.1839 4.75114 71.5516 4.17773 68.2811 4.17773C63.6865 4.17773 60.5117 6.14371 60.5117 9.48586C60.5117 12.3038 62.3783 13.8438 66.1114 14.2697C67.4675 14.4172 69.7648 14.6302 71.3761 14.7612C73.131 14.9087 73.6415 15.4657 73.6415 16.2849C73.6415 17.4153 72.4131 18.1034 69.3021 18.1034C66.1433 18.1034 62.9367 17.0385 60.6553 15.5476V19.3649C62.49 20.6264 65.6488 21.6913 69.1745 21.6913C74.1839 21.6913 77.4065 19.7089 77.4065 16.1538C77.4384 13.467 75.7154 11.845 71.759 11.4191Z" fill="#6D6D6D"/>
<path d="M79.991 4.63647V21.2162H95.0352V17.8249H83.7081V14.4663H94.8437V11.1078H83.7081V8.02778H95.0352V4.63647H79.991Z" fill="#6D6D6D"/>
<path d="M175.409 11.4191C174.037 11.2716 171.469 11.0259 170.097 10.8784C168.741 10.731 167.959 10.3214 167.959 9.40395C167.959 8.51926 168.788 7.78202 172.139 7.78202C175.106 7.78202 177.834 8.43734 180.211 9.61693V5.91435C177.834 4.75114 175.202 4.17773 171.931 4.17773C167.337 4.17773 164.162 6.14371 164.162 9.48586C164.162 12.3038 166.028 13.8438 169.762 14.2697C171.118 14.4172 173.415 14.6302 175.026 14.7612C176.781 14.9087 177.292 15.4657 177.292 16.2849C177.292 17.4153 176.063 18.1034 172.952 18.1034C169.793 18.1034 166.587 17.0385 164.305 15.5476V19.3649C166.14 20.6264 169.299 21.6913 172.825 21.6913C177.834 21.6913 181.057 19.7089 181.057 16.1538C181.089 13.467 179.366 11.845 175.409 11.4191Z" fill="#6D6D6D"/>
<path d="M157.621 4.63647V13.1229C157.621 16.334 155.722 18.1034 152.867 18.1034C149.995 18.1034 148.113 16.3668 148.113 13.0738V4.63647H144.236V12.697C144.236 18.7096 147.889 21.6913 152.931 21.6913C157.764 21.6913 161.514 18.8406 161.514 12.8936V4.63647H157.621Z" fill="#6D6D6D"/>
<path d="M47.1746 12.828C47.1746 13.6308 46.7758 13.7618 45.7867 13.7618C44.7337 13.7618 44.5423 13.5816 44.4306 12.7625C44.2232 10.6818 42.8512 8.91244 40.5539 8.71584C39.82 8.65031 39.6445 8.3718 39.6445 7.43796C39.6445 6.56965 39.7722 6.16008 40.4263 6.16008C44.4146 6.17646 47.1746 9.46946 47.1746 12.828ZM52.9817 12.828C52.9817 6.58604 48.8657 -0.0163574 39.3574 -0.0163574H20.4684C20.0855 -0.0163574 19.8462 0.18024 19.8462 0.540669C19.8462 0.737266 19.9898 0.91748 20.1174 1.01578C20.8034 1.5728 21.8244 2.19536 23.1645 2.88345C24.4727 3.55516 25.4938 3.9975 26.5148 4.42347C26.9455 4.60368 27.1051 4.80028 27.1051 5.04602C27.1051 5.39007 26.8658 5.60305 26.4031 5.60305H11.4068C10.9601 5.60305 10.7527 5.89795 10.7527 6.19284C10.7527 6.43859 10.8325 6.65157 11.0398 6.86455C12.2523 8.1752 14.1986 9.74798 17.0224 11.5665C19.4952 13.1557 22.5583 14.8759 24.9992 16.0719C25.414 16.2685 25.5416 16.4978 25.5416 16.7436C25.5257 17.0221 25.3183 17.2514 24.8397 17.2514H17.9637C17.5808 17.2514 17.3575 17.4644 17.3575 17.7921C17.3575 17.9723 17.501 18.2017 17.6925 18.3819C19.2559 19.84 21.7606 21.4291 25.0949 22.8872C29.546 24.8368 34.0608 26 39.134 26C48.754 26 52.9817 18.6112 52.9817 12.828ZM40.4263 21.6913C35.704 21.6913 31.7635 17.7429 31.7635 12.828C31.7635 7.9786 35.704 4.0958 40.4263 4.0958C45.2761 4.0958 49.0571 7.9786 49.0571 12.828C49.0412 17.7429 45.2602 21.6913 40.4263 21.6913Z" fill="#A6A6A6"/>
</g>
<defs>
<clipPath id="clip0_28_674">
<rect width="217" height="26" fill="white"/>
</clipPath>
</defs>
</svg>
