<svg width="125" height="34" viewBox="0 0 125 34" fill="none" xmlns="http://www.w3.org/2000/svg">
<g clip-path="url(#clip0_28_749)">
<path d="M17.6796 13.6071C17.2019 13.1314 16.6285 12.6557 15.9595 12.3702C15.2905 12.0848 14.6215 11.7994 13.7615 11.7043V11.6091C15.0039 11.2285 16.055 10.5625 16.8196 9.70627C17.5841 8.85 17.9664 7.70828 17.9664 6.28116C17.9664 4.94917 17.6796 3.90261 17.2019 3.14147C16.6285 2.38034 15.9595 1.71434 15.0994 1.23863C14.3349 0.762913 13.3792 0.38235 12.2324 0.287208C11.1812 0.0969238 10.13 0.0969238 9.07875 0.0969238H0V24.3582H9.93884C10.9901 24.3582 12.1368 24.263 13.1881 23.9776C14.2392 23.7874 15.2905 23.4067 16.1506 22.8358C17.0107 22.265 17.7752 21.599 18.253 20.7428C18.8265 19.8865 19.1131 18.8399 19.1131 17.5079C19.1131 16.7468 19.0176 15.9856 18.7309 15.3197C18.5397 14.6537 18.1575 14.0828 17.6796 13.6071ZM5.35169 4.5686H8.98317C9.36544 4.5686 9.84327 4.5686 10.2255 4.66374C10.7034 4.75888 11.0856 4.85403 11.3723 5.04431C11.7546 5.2346 12.0413 5.52002 12.2324 5.80545C12.4235 6.09087 12.5191 6.56658 12.5191 7.0423C12.5191 7.51801 12.4235 7.89857 12.2324 8.27914C12.0413 8.65971 11.7546 8.85 11.4679 9.13542C11.1812 9.32571 10.7989 9.51598 10.4167 9.61113C10.0344 9.70627 9.65214 9.70627 9.17431 9.70627H5.35169V4.5686ZM13.4747 18.2691C13.2836 18.6496 12.997 18.9351 12.6146 19.1254C12.2324 19.3156 11.8501 19.5059 11.4679 19.601C11.0856 19.6962 10.6078 19.6962 10.2255 19.6962H5.44725V14.1779H9.46101C9.93884 14.1779 10.3211 14.1779 10.8945 14.2731C11.3723 14.3682 11.8501 14.4634 12.328 14.6537C12.8057 14.8439 13.0925 15.1294 13.3792 15.4148C13.6659 15.7953 13.857 16.2711 13.857 16.8419C13.7615 17.4127 13.6659 17.8885 13.4747 18.2691Z" fill="#6D6D6D"/>
<path d="M39.5646 11.7996C40.4248 10.5627 40.9025 9.13559 40.9025 7.42303C40.9025 5.9959 40.6159 4.85419 40.138 3.90278C39.6601 2.95136 38.9913 2.19022 38.1311 1.61936C37.271 1.04852 36.3154 0.667947 35.1686 0.382522C34.0218 0.0970957 32.875 0.00195312 31.6326 0.00195312H22.1716V24.2632H27.5233V14.5587H30.1991L35.3598 24.2632H41.7626L35.5509 13.9879C37.3666 13.7024 38.7045 12.9413 39.5646 11.7996ZM34.8819 8.9453C34.5951 9.32587 34.2129 9.6113 33.8306 9.70645C33.3529 9.89673 32.875 9.99187 32.3971 9.99187C31.8238 9.99187 31.346 10.087 30.8681 10.087H27.7145V4.56878H31.2504C31.7283 4.56878 32.206 4.56878 32.6839 4.66392C33.1618 4.75906 33.6395 4.85419 34.0218 5.04448C34.404 5.23476 34.6908 5.52019 34.9775 5.90076C35.1686 6.28133 35.3598 6.75703 35.3598 7.42303C35.3598 7.99389 35.1686 8.56473 34.8819 8.9453Z" fill="#6D6D6D"/>
<path d="M49.8853 0.00195312H44.5337V24.2632H49.8853V0.00195312Z" fill="#6D6D6D"/>
<path d="M73.0122 2.76108C71.6742 1.80965 70.1452 1.04852 68.4251 0.667947C66.7049 0.192237 64.7936 0.00195312 62.8822 0.00195312H54.8547V24.2632H63.6467C65.4625 24.2632 67.1827 23.9778 68.8074 23.502C70.432 22.9312 71.961 22.1701 73.2034 21.2187C74.4457 20.2672 75.497 18.9352 76.2615 17.413C77.026 15.8906 77.4082 14.1781 77.4082 12.1802C77.4082 9.99187 77.026 8.08903 76.2615 6.56676C75.3057 5.04449 74.2546 3.80763 73.0122 2.76108ZM71.0054 15.415C70.5275 16.3664 69.9541 17.1275 69.1896 17.6983C68.4251 18.2692 67.4694 18.7449 66.4182 18.9352C65.367 19.2207 64.2201 19.3158 62.9779 19.3158H60.2064V4.94935H63.3601C64.5069 4.94935 65.5581 5.13962 66.6094 5.42505C67.6605 5.71048 68.5206 6.18619 69.2851 6.75703C70.0497 7.32789 70.6231 8.08903 71.1009 8.9453C71.5787 9.80159 71.7699 10.8482 71.7699 12.085C71.6742 13.3218 71.4831 14.4635 71.0054 15.415Z" fill="#6D6D6D"/>
<path d="M93.3682 14.8441H97.7642V18.745C97.2865 19.0304 96.6175 19.3159 95.7574 19.5061C94.8974 19.7916 93.9416 19.8867 92.6992 19.8867C91.5525 19.8867 90.5012 19.6964 89.5456 19.3159C88.59 18.9353 87.8255 18.3645 87.1565 17.6984C86.4875 17.0324 86.0097 16.1762 85.6275 15.2247C85.2451 14.2733 85.054 13.2267 85.054 12.0851C85.054 10.9433 85.2451 9.89679 85.6275 8.94536C86.0097 7.99393 86.4875 7.13766 87.1565 6.47166C87.8255 5.80567 88.59 5.23482 89.5456 4.85425C90.5012 4.47369 91.5525 4.28339 92.6992 4.28339C94.0372 4.28339 95.184 4.47369 96.1396 4.85425C97.0954 5.23482 97.8599 5.80567 98.6244 6.5668L102.447 2.47569C101.205 1.33399 99.7711 0.572857 98.1465 0.0971466C96.4264 -0.378564 94.7062 -0.568848 92.6992 -0.568848C90.788 -0.568848 89.0677 -0.283421 87.4432 0.28743C85.8186 0.858285 84.4806 1.71456 83.2382 2.85626C82.0915 3.99797 81.1359 5.32996 80.4669 6.85223C79.7979 8.46965 79.5112 10.1822 79.5112 12.0851C79.5112 13.9878 79.7979 15.7955 80.4669 17.3179C81.1359 18.9353 81.996 20.2672 83.2382 21.3138C84.3851 22.4555 85.8186 23.3118 87.4432 23.8826C89.0677 24.4535 90.788 24.739 92.6992 24.739C94.515 24.739 96.2352 24.5487 97.9554 24.1681C99.6756 23.7876 101.3 23.2166 102.925 22.3604V9.89679H93.3682V14.8441Z" fill="#6D6D6D"/>
<path d="M113.245 19.411V14.4635H123.758V9.51616H113.245V4.94935H124.426V0.00195312H107.894V24.2632H125V19.411H113.245Z" fill="#6D6D6D"/>
<path d="M125 29.1155H107.798V33.9677H125V29.1155Z" fill="#6D6D6D"/>
<path d="M17.2975 29.1155H0.0957031V33.9677H17.2975V29.1155Z" fill="#6D6D6D"/>
</g>
<defs>
<clipPath id="clip0_28_749">
<rect width="125" height="34" fill="white"/>
</clipPath>
</defs>
</svg>
