<svg width="152" height="34" viewBox="0 0 152 34" fill="none" xmlns="http://www.w3.org/2000/svg">
<path fill-rule="evenodd" clip-rule="evenodd" d="M27.4303 32.8681H34.9912V2.09355L27.4303 4.77203V32.8681ZM20.1331 12.2154L13.4514 18.4028H7.12132L14.5943 10.2086C13.8031 10.125 13.0118 10.125 12.2205 10.125C6.15424 10.125 0 14.5566 0 21.5802C0 28.8546 6.33007 33.3697 12.748 33.3697C17.4956 33.3697 21.1881 31.1958 23.1223 28.3528L16.7922 26.4297C15.8251 27.2659 14.4184 27.7675 12.836 27.7675C10.0226 27.7675 7.03341 25.7609 6.94549 23.336H24.3531C24.4411 23.1688 24.529 22.1655 24.529 21.3293C24.529 17.2322 22.8586 14.1385 20.1331 12.2154ZM49.7614 10.0414C43.3433 10.0414 37.7166 14.5566 37.7166 21.6637C37.7166 29.1055 43.5192 33.4534 50.2888 33.4534C55.4759 33.4534 59.4323 31.2794 61.3665 28.4365L54.7727 26.4297C53.7176 27.2659 52.1352 27.7675 50.3767 27.7675C47.4754 27.7675 45.1896 26.0118 45.0138 23.5033H62.5973C62.6852 23.336 62.7731 22.3327 62.7731 21.4129C62.7731 14.2221 57.4101 10.0414 49.7614 10.0414ZM45.1896 19.0718C45.3655 17.3994 47.0359 14.891 50.201 14.891C53.8056 14.891 55.3002 17.3994 55.3881 19.0718H45.1896ZM102.953 9.70693C96.5352 9.70693 90.6447 14.2221 90.6447 21.3293C90.6447 28.7709 96.7109 33.1189 103.481 33.1189C108.492 33.1189 112.624 31.0286 114.646 28.2693L107.964 26.179C106.822 26.9315 105.239 27.4331 103.481 27.4331C100.579 27.4331 98.0298 25.6772 97.8539 23.1688H115.965C116.053 23.0016 116.141 21.9982 116.141 21.0784C116.229 13.9713 110.602 9.70693 102.953 9.70693ZM98.1176 18.8209C98.2935 17.1487 100.228 14.7238 103.393 14.7238C106.997 14.7238 108.844 17.1487 108.932 18.8209H98.1176ZM133.285 10.2086C130.735 10.2086 127.746 11.212 126.339 13.3023V9.62333L119.042 12.8876V32.9517H126.603V20.2424C126.603 17.9847 128.186 16.396 130.647 16.396C133.373 16.396 134.691 18.0684 134.691 20.2424V33.0353H142.252V18.9881C142.34 14.1385 139.526 10.2086 133.285 10.2086ZM150.066 7.70019C150.066 7.03128 149.538 6.5296 148.747 6.5296H147.164V10.125H148.132V8.9544H148.395L149.01 10.125H150.066L149.363 8.78718C149.801 8.53634 150.066 8.11827 150.066 7.70019ZM148.572 8.11827H148.132V7.28212H148.572C148.835 7.28212 149.098 7.44935 149.098 7.70019C149.098 7.95103 148.923 8.11827 148.572 8.11827ZM148.484 4.94093C146.55 4.94093 144.966 6.44598 144.966 8.28549C144.966 10.125 146.55 11.6301 148.484 11.6301C150.418 11.6301 152 10.125 152 8.28549C152 6.44598 150.418 4.94093 148.484 4.94093ZM148.484 10.8775C146.988 10.8775 145.845 9.70693 145.845 8.28549C145.845 6.86406 146.988 5.69345 148.484 5.69345C149.978 5.69345 151.121 6.86406 151.121 8.28549C151.209 9.79055 150.066 10.8775 148.484 10.8775ZM90.3793 10.7939H81.2359L73.2354 18.57V0.758545L65.6744 4.77203V32.8681H73.2354V27.1824L77.3675 24.6739L82.6425 32.8681H91.0826L81.4995 19.4897L90.3793 10.7939Z" fill="#F09468"/>
</svg>
