<svg width="164" height="32" viewBox="0 0 164 32" fill="none" xmlns="http://www.w3.org/2000/svg">
<g filter="url(#filter0_d_28_759)">
<path d="M92.1937 6.65946H87.0271V22.9389C87.0271 23.6571 86.6666 23.8965 86.0658 23.8965H82.7015C82.1007 23.8965 81.7402 23.6571 81.7402 22.9389V6.65946H76.4534C75.6123 6.65946 75.4922 6.30035 75.4922 5.70185V2.829C75.4922 2.23049 75.7325 1.87139 76.4534 1.87139H92.1937C93.0348 1.87139 93.155 2.23049 93.155 2.829V5.58214C93.2751 6.30035 93.0348 6.65946 92.1937 6.65946ZM75.0116 23.8965H71.4069C70.686 23.8965 70.4457 23.6571 70.0852 22.9389L69.124 20.3055H60.8333L59.872 22.9389C59.6317 23.7768 59.2712 23.8965 58.5503 23.8965H54.9457C54.2247 23.8965 54.2247 23.4177 54.3449 22.9389L61.9147 2.9487C62.155 2.23049 62.5154 1.87139 63.3565 1.87139H66.6007C67.3216 1.87139 67.6821 2.23049 68.0426 2.9487L75.4922 22.9389C75.8526 23.298 75.8526 23.8965 75.0116 23.8965ZM65.1588 8.21558L62.6356 15.6371H67.6821L65.1588 8.21558ZM43.1705 23.8965C38.6046 23.8965 35.2402 21.3828 35.2402 16.7144C35.2402 16.5947 35.2402 15.7568 36.0813 15.7568H39.686C40.4069 15.7568 40.5271 16.2356 40.5271 16.475C40.6472 18.3902 41.7286 19.2282 43.2906 19.2282C45.5736 19.2282 46.4147 18.0311 46.4147 15.9962V6.06095H40.5271C39.686 6.06095 39.5658 5.70185 39.5658 5.10334V2.35019C39.5658 1.75168 39.686 1.39258 40.5271 1.39258H50.8604C51.7015 1.39258 51.8216 1.75168 51.8216 2.35019V16.7144C51.5813 21.8616 47.2557 23.8965 43.1705 23.8965Z" fill="#6D6D6D"/>
<path d="M18.4186 0.913818H26.5891C27.3101 0.913818 27.7907 1.51233 27.7907 2.11084V10.1309C27.7907 10.8491 27.1899 11.3279 26.5891 11.3279H18.4186C17.6977 11.3279 17.217 10.7294 17.217 10.1309V2.11084C17.217 1.51233 17.8178 0.913818 18.4186 0.913818Z" fill="#6D6D6D"/>
<path d="M5.20155 13.2432H13.3721C14.093 13.2432 14.5736 13.8417 14.5736 14.4402V22.4602C14.5736 23.1784 13.9729 23.6572 13.3721 23.6572H5.20155C4.48062 23.6572 4 23.0587 4 22.4602V14.4402C4 13.722 4.60078 13.2432 5.20155 13.2432Z" fill="#6D6D6D"/>
<path d="M18.4186 13.2432H26.5891C27.3101 13.2432 27.7907 13.8417 27.7907 14.4402V22.4602C27.7907 23.1784 27.1899 23.6572 26.5891 23.6572H18.4186C17.6977 23.6572 17.217 23.0587 17.217 22.4602V14.4402C17.0969 13.722 17.6977 13.2432 18.4186 13.2432Z" fill="#6D6D6D"/>
<path d="M150.109 17.0736H146.864V22.5799C146.864 23.2981 146.504 23.5375 145.903 23.5375H142.539C141.938 23.5375 141.578 23.2981 141.578 22.5799V2.58965C141.578 1.99114 141.818 1.63203 142.539 1.63203H150.229C156.116 1.63203 159.12 4.74428 159.12 9.41265C159 13.9613 155.876 17.0736 150.109 17.0736ZM150.109 6.3004H146.864V12.5249H150.109C152.752 12.5249 153.954 11.0885 153.954 9.41265C153.833 7.73683 152.752 6.3004 150.109 6.3004ZM128.721 17.0736H125.477V22.5799C125.477 23.2981 125.116 23.5375 124.516 23.5375H121.151C120.55 23.5375 120.19 23.2981 120.19 22.5799V2.58965C120.19 1.99114 120.43 1.63203 121.151 1.63203H128.841C134.729 1.63203 137.733 4.74428 137.733 9.41265C137.733 13.9613 134.609 17.0736 128.721 17.0736ZM128.721 6.3004H125.477V12.5249H128.721C131.364 12.5249 132.566 11.0885 132.566 9.41265C132.566 7.73683 131.364 6.3004 128.721 6.3004ZM116.585 23.5375H112.981C112.26 23.5375 112.019 23.2981 111.659 22.5799L110.698 19.9464H102.407L101.446 22.5799C101.206 23.4178 100.845 23.5375 100.124 23.5375H96.5195C95.7985 23.5375 95.7985 23.0587 95.9187 22.5799L103.488 2.58965C103.729 1.87143 104.089 1.51233 104.93 1.51233H108.175C108.895 1.51233 109.256 1.87143 109.616 2.58965L117.066 22.5799C117.306 23.0587 117.306 23.5375 116.585 23.5375ZM106.612 7.85653L104.089 15.278H109.136L106.612 7.85653Z" fill="#6D6D6D"/>
</g>
<defs>
<filter id="filter0_d_28_759" x="0" y="0.913818" width="163.12" height="30.9827" filterUnits="userSpaceOnUse" color-interpolation-filters="sRGB">
<feFlood flood-opacity="0" result="BackgroundImageFix"/>
<feColorMatrix in="SourceAlpha" type="matrix" values="0 0 0 0 0 0 0 0 0 0 0 0 0 0 0 0 0 0 127 0" result="hardAlpha"/>
<feOffset dy="4"/>
<feGaussianBlur stdDeviation="2"/>
<feComposite in2="hardAlpha" operator="out"/>
<feColorMatrix type="matrix" values="0 0 0 0 0 0 0 0 0 0 0 0 0 0 0 0 0 0 0.25 0"/>
<feBlend mode="normal" in2="BackgroundImageFix" result="effect1_dropShadow_28_759"/>
<feBlend mode="normal" in="SourceGraphic" in2="effect1_dropShadow_28_759" result="shape"/>
</filter>
</defs>
</svg>
